<?xml version="1.0" encoding="UTF-8" standalone="no"?>
<svg
   version="1.1"
   width="333.39157pt"
   height="100.61053pt"
   viewBox="0 0 333.39157 100.61053"
   id="svg189"
   sodipodi:docname="Nasreen logo Horizontal.svg"
   inkscape:version="1.2 (dc2aeda, 2022-05-15)"
   xmlns:inkscape="http://www.inkscape.org/namespaces/inkscape"
   xmlns:sodipodi="http://sodipodi.sourceforge.net/DTD/sodipodi-0.dtd"
   xmlns="http://www.w3.org/2000/svg"
   xmlns:svg="http://www.w3.org/2000/svg">
  <defs
     id="defs193" />
  <sodipodi:namedview
     id="namedview191"
     pagecolor="#505050"
     bordercolor="#eeeeee"
     borderopacity="1"
     inkscape:showpageshadow="0"
     inkscape:pageopacity="0"
     inkscape:pagecheckerboard="0"
     inkscape:deskcolor="#505050"
     inkscape:document-units="pt"
     showgrid="false"
     inkscape:zoom="1.1379388"
     inkscape:cx="219.25608"
     inkscape:cy="219.25608"
     inkscape:window-width="1440"
     inkscape:window-height="777"
     inkscape:window-x="0"
     inkscape:window-y="25"
     inkscape:window-maximized="0"
     inkscape:current-layer="layer_1" />
  <g
     id="layer_1"
     data-name="Layer 1"
     transform="translate(-13.304214,-129.69473)">
    <g
       id="g428"
       transform="translate(0.4529263,27.066055)">
      <g
         id="g422"
         transform="translate(-1.0709406,0.702295)">
        <path
           d="m 136.5364,159.8715 h 2.0888 v -27.4179 l 22.4563,27.94 h 1.0449 v -34.9903 h -2.0894 v 25.8511 l -18.2784,-22.7177 c -1.5667,-1.9321 -3.6555,-3.1334 -7.0503,-3.1334 h -3.3945 v 1.0446 h 0.5221 c 3.6556,0 4.7005,2.0888 4.7005,5.2225 z m 63.7134,-1.0446 c -2.8723,-0.2611 -4.1258,-1.5667 -5.7449,-5.4836 l -11.4891,-27.94 h -1.5668 l -14.6228,34.4682 h 2.35 l 4.1782,-9.9227 h 14.6228 l 1.3057,3.3945 c 2.2975,6.0057 6.5276,6.7892 8.8781,6.7892 0.7832,0 1.5667,-0.1043 2.0888,-0.261 z m -19.584,-26.1122 6.2666,15.1452 h -12.7948 z m 42.6147,18.383 c 0,-3.8648 -2.0364,-6.0055 -6.4758,-8.6171 l -6.4233,-3.8123 c -3.8123,-2.2456 -5.7968,-3.8123 -5.7968,-6.8411 0,-3.238 2.9766,-5.275 6.0579,-5.275 5.8493,0 9.1913,2.7677 10.3405,9.7662 h 0.94 v -5.5882 c 0,-3.9169 -6.1101,-6.2669 -11.2805,-6.2669 -6.1101,0 -10.1316,3.4991 -10.1316,8.8782 0,3.8644 1.6713,6.3714 6.1104,8.9824 l 6.4236,3.8126 c 3.8123,2.2456 5.7444,4.1777 5.7444,7.2068 0,3.4466 -3.2378,5.3268 -6.8412,5.3268 -5.8493,0 -9.3478,-2.872 -10.4972,-9.8702 h -0.94 v 5.5877 c 0,3.9172 6.2147,6.3714 11.9069,6.3714 6.7374,0 10.8627,-3.8123 10.8627,-9.6613 z m 15.6679,-8.9825 c -1.3059,0 -2.8726,-0.2613 -3.9172,-0.5224 v -13.8396 c 1.0446,-0.261 2.6113,-0.5221 3.9172,-0.5221 2.8721,0 8.0946,2.0888 8.0946,7.5725 0,5.2228 -5.2225,7.3116 -8.0946,7.3116 z m 4.9609,10.7059 c 3.3948,5.7447 5.745,7.5725 9.4006,7.5725 1.3053,0 2.6112,-0.2611 3.1337,-0.5221 v -1.0446 c -2.6116,-0.2611 -4.3869,-1.5667 -7.0507,-6.0058 l -5.4836,-9.1394 c 3.6562,-0.7832 8.356,-2.8721 8.356,-8.8781 0,-8.3557 -8.617,-9.4003 -13.0558,-9.4003 H 225.631 v 1.0446 h 1.0445 c 3.1337,0 3.6559,2.0888 3.6559,5.2225 v 28.2011 h 4.6998 V 143.943 h 3.6561 z m 12.0116,-27.4178 v 1.0446 h 1.0442 c 3.1337,0 3.6562,2.0888 3.6562,5.2225 v 28.2011 h 18.0173 c 2.0888,0 3.342,-1.0446 3.9166,-2.6113 l 1.8278,-4.9615 -1.0446,-0.2611 c -1.5667,4.1783 -4.1777,5.745 -8.8781,5.745 h -9.1392 v -14.6231 h 14.1007 v -2.0888 h -14.1007 v -13.5785 h 9.7138 c 4.1777,0 6.5282,1.8277 6.5282,6.006 h 1.0445 v -3.9166 c 0,-2.0894 -0.7835,-4.1783 -4.4393,-4.1783 z m 30.5512,0 v 1.0446 h 1.0446 c 3.1337,0 3.6558,2.0888 3.6558,5.2225 v 28.2011 h 18.0173 c 2.0889,0 3.342,-1.0446 3.9166,-2.6113 l 1.8278,-4.9615 -1.0443,-0.2611 c -1.5667,4.1783 -4.1777,5.745 -8.8781,5.745 h -9.1392 v -14.6231 h 14.1007 v -2.0888 h -14.1007 v -13.5785 h 9.7138 c 4.1777,0 6.5282,1.8277 6.5282,6.006 h 1.0443 v -3.9166 c 0,-2.0894 -0.7832,-4.1783 -4.4394,-4.1783 z m 35.2519,34.4682 h 2.0889 v -27.4179 l 22.456,27.94 h 1.0449 v -34.9903 h -2.0894 v 25.8511 L 326.946,128.5367 c -1.5667,-1.9321 -3.6555,-3.1334 -7.0503,-3.1334 h -3.3945 v 1.0446 h 0.5224 c 3.6556,0 4.7004,2.0888 4.7004,5.2225 z"
           fill="#231f20"
           id="path182" />
        <path
           d="m 184.9799,179.5397 v -11.7599 h 1.3816 v 5.23 l 4.9368,-5.23 h 1.6696 l -5.0408,5.2932 5.5397,6.4667 h -1.8065 l -5.2988,-6.3298 v 6.3298 z m 20.5432,-9.1282 -1.8694,4.3254 h 3.7417 z m 0,-3.0923 5.3481,12.2205 h -1.5156 l -1.5271,-3.602 h -4.5915 l -1.527,3.602 h -1.5129 z m 17.9584,5.6937 c 0.765,0.326 1.3433,0.7591 1.7299,1.2994 0.3892,0.5397 0.584,1.1815 0.584,1.9188 0,1.0802 -0.3453,1.9513 -1.0338,2.6124 -0.688,0.6604 -1.5982,0.9921 -2.7355,0.9921 -0.9266,0 -1.7024,-0.2358 -2.3297,-0.7098 -0.6254,-0.4742 -1.0475,-1.1458 -1.2697,-2.0177 l 1.2697,-0.6276 c 0.1723,0.7129 0.4546,1.2526 0.8495,1.6203 0.392,0.3671 0.8853,0.5508 1.4802,0.5508 0.7016,0 1.2691,-0.203 1.7051,-0.6058 0.4328,-0.4059 0.6494,-0.9323 0.6494,-1.5789 0,-0.5264 -0.1505,-0.9814 -0.4547,-1.3706 -0.3016,-0.3897 -0.7565,-0.7157 -1.368,-0.9841 l -1.4309,-0.6115 c -0.7812,-0.3262 -1.3652,-0.7458 -1.7461,-1.2611 -0.3836,-0.5122 -0.5755,-1.129 -0.5755,-1.8473 0,-0.8363 0.3098,-1.5271 0.9318,-2.0725 0.6222,-0.5456 1.4145,-0.8197 2.3794,-0.8197 0.7044,0 1.3186,0.1511 1.834,0.4495 0.5182,0.3019 0.9207,0.743 1.209,1.3295 l -1.1571,0.7376 c -0.2603,-0.4553 -0.5565,-0.7926 -0.8827,-1.0143 -0.3263,-0.2222 -0.6962,-0.3345 -1.1075,-0.3345 -0.5264,0 -0.9565,0.1619 -1.2909,0.4828 -0.3348,0.3203 -0.5018,0.7288 -0.5018,1.2277 0,0.4167 0.129,0.7786 0.3864,1.0828 0.2551,0.307 0.6554,0.576 1.1956,0.8116 z m 11.2861,6.5268 v -11.7599 h 1.398 v 4.523 h 6.2504 v -4.523 h 1.4145 v 11.7599 h -1.4145 v -5.9043 h -6.2504 v 5.9043 z m 24.4661,0.4603 -3.6541,-8.4484 -1.4775,7.9881 h -1.3648 l 2.3848,-12.2205 4.1116,9.7231 4.1119,-9.7231 2.3848,12.2205 h -1.3654 l -1.4936,-7.9881 z m 15.431,-0.4603 v -11.7599 h 1.398 v 11.7599 z m 11.3519,0 v -11.7599 h 2.7635 c 0.7866,0 1.3648,0.044 1.7294,0.1316 0.3676,0.0904 0.6908,0.2415 0.9703,0.4549 0.3484,0.2713 0.6168,0.639 0.8087,1.0965 0.195,0.4581 0.2906,0.9652 0.2906,1.5216 0,0.9621 -0.2685,1.6968 -0.8056,2.1957 -0.5403,0.5015 -1.3269,0.7509 -2.3656,0.7509 h -0.2497 l 4.4901,5.6087 h -1.7762 l -4.2928,-5.6087 h -0.1973 v 5.6087 z m 1.3654,-10.5758 v 3.9311 h 1.0661 c 1.0939,0 1.8258,-0.1401 2.1957,-0.4221 0.3703,-0.2798 0.5537,-0.7705 0.5537,-1.472 0,-0.7541 -0.1891,-1.2802 -0.5701,-1.5846 -0.381,-0.3013 -1.1075,-0.4524 -2.1793,-0.4524 z"
           fill="#231f20"
           id="path184" />
      </g>
      <path
         d="m 29.026598,120.8528 10.13673,10.13647 c -3.019546,0.6471 -5.931044,1.72536 -8.842541,3.12734 -0.862936,0.53905 -1.725529,0.97039 -2.588208,1.50969 -0.107792,-1.40198 -0.215498,-2.91167 -0.215498,-4.31348 0,-2.15661 0.215498,-4.31348 0.539046,-6.3623 0.215584,-1.40172 0.646837,-2.8037 0.970471,-4.09772 z m -3.558679,3.55859 v 0 c -0.431339,2.26441 -0.646837,4.52907 -0.646837,6.90143 0,2.04891 0.107792,3.98993 0.431339,5.93105 -1.617565,1.18622 -3.127338,2.48015 -4.529062,3.98993 -1.61748,1.61756 -3.127253,3.34283 -4.421271,5.17615 -1.293932,1.94086 -2.480158,3.88189 -3.343008,6.0385 h -0.107792 c 0,0.10805 0,0.32354 0,0.43159 v 0.1078 c 0,0.10779 0,0.32354 0,0.43134 l 0.107792,0.1077 c 0.86285,2.04891 2.049076,4.09772 3.343008,5.93105 1.294018,1.83306 2.803791,3.66638 4.421271,5.28394 1.401724,1.40199 2.911497,2.69592 4.529062,3.88214 -0.323547,1.94103 -0.431339,3.98994 -0.431339,6.03875 0,2.26441 0.215498,4.52907 0.646837,6.79373 0.323548,2.26431 0.970728,4.42118 1.725529,6.47009 0,0.21549 0.215584,0.43134 0.323633,0.64683 0.215498,0.10805 0.431254,0.21576 0.646838,0.32355 2.048819,0.75489 4.205687,1.29402 6.470089,1.72527 2.26466,0.43134 4.52932,0.64718 6.793637,0.64718 2.048905,0 4.097723,-0.21584 6.038836,-0.43134 1.078434,1.50978 2.480158,3.12726 3.882139,4.52898 1.617566,1.61757 3.450629,3.12734 5.28395,4.42127 1.833063,1.29402 3.77409,2.37245 5.822994,3.34309 0.107964,0 0.323548,0.1078 0.431339,0.1078 h 0.107964 c 0.107792,0 0.215584,0 0.32329,0 0.215841,0 0.323547,-0.1078 0.323547,-0.1078 2.048905,-0.97064 4.097724,-2.04907 5.931042,-3.34309 1.83332,-1.29393 3.666384,-2.8037 5.283949,-4.42127 1.401981,-1.40172 2.695913,-3.0192 3.882139,-4.52898 1.941027,0.2155 3.989932,0.43134 6.03875,0.43134 2.264403,0 4.529063,-0.21584 6.793723,-0.64718 2.264317,-0.43125 4.421185,-0.97038 6.470089,-1.72527 0.215498,-0.10779 0.43134,-0.2155 0.646838,-0.32355 0.108049,-0.21549 0.323547,-0.43134 0.323547,-0.64683 0.754887,-2.04891 1.401979,-4.20578 1.725359,-6.47009 0.43151,-2.26466 0.64709,-4.52932 0.64709,-6.79373 0,-2.04881 -0.10779,-4.09772 -0.43134,-6.03875 1.61748,-1.18622 3.12726,-2.48015 4.52898,-3.88214 1.61757,-1.61756 3.12734,-3.45088 4.42127,-5.28394 1.29402,-1.83333 2.48025,-3.88214 3.3431,-5.93105 l 0.10779,-0.1077 c 0,-0.1078 0,-0.32355 0,-0.43134 v -0.1078 c 0,-0.10805 0,-0.32354 0,-0.43159 h -0.10779 c -0.86285,-2.15661 -2.04908,-4.09764 -3.3431,-6.0385 -1.29393,-1.83332 -2.8037,-3.55859 -4.42127,-5.17615 -1.40172,-1.50978 -2.9115,-2.80371 -4.52898,-3.98993 0.32355,-1.94112 0.43134,-3.88214 0.43134,-5.93105 0,-4.52897 -0.75488,-9.05829 -2.372449,-13.37152 0,-0.21575 -0.215498,-0.43134 -0.323547,-0.5393 -0.215498,-0.21558 -0.43134,-0.32355 -0.646838,-0.32355 -2.048904,-0.86267 -4.205772,-1.40181 -6.470089,-1.83306 -2.26466,-0.43134 -4.52932,-0.53913 -6.793723,-0.53913 -2.048818,0 -4.097723,0.10779 -6.03875,0.43134 -1.078434,-1.61757 -2.480158,-3.12734 -3.882139,-4.52932 -3.235131,-3.23505 -6.901426,-5.9307 -11.106941,-7.76402 -0.215756,-0.10779 -0.431597,-0.21558 -0.647095,-0.21558 -0.215756,0 -0.431339,0.10779 -0.647095,0.21558 -2.048904,0.86259 -3.989931,2.04882 -5.822994,3.34275 -1.833321,1.29427 -3.666384,2.696 -5.28395,4.42127 -1.401981,1.40198 -2.695913,2.91175 -3.882139,4.52932 -1.941113,-0.32355 -3.989931,-0.43134 -6.038836,-0.43134 -2.264317,0 -4.528977,0.10779 -6.793637,0.53913 -2.264402,0.43125 -4.42127,0.97039 -6.470089,1.83306 -0.215584,0 -0.43134,0.10797 -0.646838,0.32355 -0.108049,0.10796 -0.323633,0.32355 -0.323633,0.5393 -0.754801,2.15661 -1.401981,4.31323 -1.725529,6.47009 z m 2.803792,14.12649 v 0 c 1.078434,-0.75488 2.156868,-1.40206 3.343008,-1.94111 2.803791,-1.50977 5.822995,-2.58795 8.950333,-3.23504 v 39.14417 c -3.127338,-0.64684 -6.146542,-1.72528 -8.950333,-3.127 -1.18614,-0.64709 -2.264574,-1.29427 -3.343008,-1.94111 0.215755,-1.29393 0.539303,-2.58821 0.970642,-3.77435 1.186226,-3.55868 2.803705,-6.90151 4.960316,-9.92072 0.107792,0 0.107792,-0.10805 0.215841,-0.21584 0,-0.2155 0.107706,-0.32355 0.107706,-0.53904 0,-0.21585 -0.107706,-0.43134 -0.107706,-0.6471 -0.108049,0 -0.108049,-0.10779 -0.215841,-0.21558 -2.156611,-2.91176 -3.77409,-6.25459 -4.960316,-9.81319 -0.431339,-1.29393 -0.754887,-2.48015 -0.970642,-3.77409 z m -11.969623,15.74389 v 0 h 14.341989 c -1.617479,2.696 -3.01929,5.4997 -3.989932,8.51899 -0.32329,0.97064 -0.539131,1.94111 -0.754629,2.91176 -1.186226,-0.86294 -2.26466,-1.83332 -3.235045,-2.91176 -1.617822,-1.50977 -2.911754,-3.12725 -4.09798,-4.85261 -0.862593,-1.18622 -1.61748,-2.37236 -2.264403,-3.66638 z m 26.958878,-16.93011 v 0 c 0,-8.08766 0.862678,-12.40114 5.391741,-19.30256 0.862593,0.21549 1.725271,0.43134 2.588121,0.64709 3.127082,0.86268 6.146628,2.2644 8.950334,3.98967 3.235044,1.94112 5.822994,4.63703 7.548266,7.76437 1.725526,3.12725 2.695996,6.68559 2.695996,10.56781 v 32.99763 c 0,0.75489 0.539046,1.29402 1.293932,1.29402 0.754887,0 1.401982,-0.53913 1.401982,-1.29402 v -32.99763 c 0,-4.31348 -1.078434,-8.4112 -3.019461,-11.86183 -1.294018,-2.26457 -2.803789,-4.20569 -4.852607,-6.03875 2.695999,-1.72553 5.499702,-3.01955 8.518991,-3.98993 1.18614,-0.43134 2.480415,-0.75489 3.774347,-1.07843 4.744818,7.22497 5.391656,11.4304 5.391656,19.94965 v 32.99763 c 0,6.47018 -1.833064,11.53828 -5.391656,16.82215 -0.862678,-0.2155 -1.725271,-0.32329 -2.588207,-0.64684 -3.126995,-0.86268 -6.146542,-2.15661 -8.950245,-3.88214 -3.235044,-2.0489 -5.822994,-4.74482 -7.548523,-7.8719 -1.725357,-3.01946 -2.695742,-6.68584 -2.695742,-10.46002 v -32.99788 c 0,-0.75463 -0.539303,-1.40181 -1.294018,-1.40181 -0.754801,0 -1.401981,0.64718 -1.401981,1.40181 v 32.99788 c 0,4.31322 1.078434,8.30315 3.019546,11.86174 1.294018,2.15687 2.803706,4.20578 4.85261,5.93105 -3.774433,2.48016 -7.979862,4.20551 -12.293341,5.06811 -3.882225,-5.93079 -5.391741,-10.56782 -5.391741,-17.25349 z m 42.379297,35.15424 v 0 -39.14417 c 3.127253,0.64709 6.146542,1.72527 8.950247,3.23504 1.186226,0.53905 2.26466,1.18623 3.343094,1.94111 -0.215755,1.29394 -0.539302,2.48016 -0.970642,3.77409 -1.186226,3.5586 -2.803705,6.90143 -4.960402,9.81319 -0.107963,0.10779 -0.107963,0.21558 -0.215755,0.21558 0,0.21576 -0.107792,0.43125 -0.107792,0.6471 0,0.21549 0.107792,0.32354 0.107792,0.53904 0.107792,0.10779 0.107792,0.21584 0.215755,0.21584 2.156697,3.01921 3.774176,6.36204 4.960402,9.92072 0.43134,1.18614 0.754887,2.48042 0.970642,3.77435 -1.078434,0.64684 -2.156868,1.29402 -3.343094,1.94111 -2.803705,1.40172 -5.822994,2.48016 -8.950247,3.127 z m 10.244265,-0.75489 v 0 c 0.86285,-0.43125 1.725529,-0.97039 2.588208,-1.50952 0.107706,1.50952 0.215498,2.9115 0.215498,4.42127 0,2.15661 -0.215498,4.31348 -0.539046,6.36239 -0.215584,1.29393 -0.64718,2.69565 -0.97047,4.09763 L 87.041987,174.98631 c 3.019547,-0.75489 5.931044,-1.83332 8.842541,-3.2353 z m -64.916904,15.20492 v 0 l 10.136474,-10.02876 c 0.647094,3.01954 1.725528,5.93104 3.235044,8.73475 0.43134,0.86267 0.862679,1.83332 1.402068,2.58795 -1.402068,0.21575 -2.803792,0.32354 -4.313565,0.32354 -2.156611,0 -4.313479,-0.21549 -6.362297,-0.53904 -1.401724,-0.32364 -2.803706,-0.64718 -4.097724,-1.07844 z m 68.583288,-43.88907 v 0 c 0.323548,-0.86268 0.539298,-1.83306 0.754888,-2.8037 1.18614,0.86259 2.26457,1.83332 3.23504,2.8037 1.61748,1.61757 2.91176,3.23505 4.0979,4.9604 0.86268,1.18614 1.61756,2.37237 2.2644,3.55859 H 95.561238 c 1.61748,-2.58795 3.019204,-5.49944 3.989674,-8.51899 z m -14.44978,-14.01861 v 0 c -0.647095,-3.01929 -1.725529,-6.03884 -3.235045,-8.84254 -0.431339,-0.86268 -0.86285,-1.72527 -1.401981,-2.58795 1.401981,-0.21576 2.803705,-0.21576 4.313478,-0.21576 2.156611,0 4.313479,0.10796 6.362384,0.5393 1.401724,0.21559 2.803705,0.53914 4.097723,0.97039 z M 51.995458,116.10798 v 0 c -0.539046,-0.10779 -1.078177,-0.32354 -1.61748,-0.43134 0.86285,-1.07843 1.833321,-2.15661 2.911755,-3.23504 1.509516,-1.50978 3.126995,-2.9115 4.852524,-4.09773 1.186226,-0.7548 2.372452,-1.50968 3.55842,-2.15686 v 14.23445 l -0.107791,-0.10796 c -3.01929,-1.83306 -6.254334,-3.23505 -9.597428,-4.20552 z m 12.509182,83.68034 v 0 -14.3419 l 0.107792,0.1077 c 3.019204,1.83307 6.254332,3.23505 9.59734,4.20552 0.539131,0.21575 1.078176,0.32355 1.617565,0.43134 -0.862936,1.18614 -1.833321,2.26457 -2.911755,3.23504 -1.509516,1.50978 -3.127081,2.91176 -4.852607,4.09773 -1.18614,0.86285 -2.372366,1.50968 -3.558335,2.26457"
         fill="#af8749"
         fill-rule="evenodd"
         id="path186"
         style="stroke-width:0.858216" />
    </g>
  </g>
</svg>
